<?xml version="1.0" standalone="no"?>
<!DOCTYPE svg PUBLIC "-//W3C//DTD SVG 20010904//EN"
 "http://www.w3.org/TR/2001/REC-SVG-20010904/DTD/svg10.dtd">
<svg version="1.0" xmlns="http://www.w3.org/2000/svg"
 width="96.000000pt" height="96.000000pt" viewBox="0 0 96.000000 96.000000"
 preserveAspectRatio="xMidYMid meet">

<g transform="translate(0.000000,96.000000) scale(0.100000,-0.100000)"
fill="#000000" stroke="none">
<path d="M609 951 c-61 -19 -82 -40 -99 -101 -8 -27 -7 -28 20 -20 62 18 82
38 100 101 5 16 8 29 7 28 -1 0 -14 -4 -28 -8z"/>
<path d="M442 768 c-36 -10 -63 -46 -87 -118 -9 -26 -43 -79 -80 -123 -87
-105 -108 -147 -109 -222 0 -90 40 -157 119 -198 35 -18 58 -20 195 -20 137 0
160 2 195 20 79 41 119 108 119 198 -1 75 -22 117 -109 222 -36 43 -70 94 -76
113 -37 115 -85 151 -167 128z m-172 -460 l13 -33 4 33 c3 20 10 32 20 32 12
0 14 -9 8 -52 -4 -29 -9 -56 -12 -60 -9 -17 -31 -7 -37 17 -4 14 -11 25 -16
25 -6 0 -10 -11 -10 -25 0 -16 -6 -25 -16 -25 -14 0 -15 7 -9 46 12 84 30 98
55 42z m230 22 c0 -5 -7 -10 -15 -10 -8 0 -15 5 -15 10 0 6 7 10 15 10 8 0 15
-4 15 -10z m86 -51 l10 -54 8 43 c8 41 10 43 39 40 27 -2 33 -8 35 -31 4 -33
-13 -57 -39 -57 -11 0 -19 -7 -19 -15 0 -8 -7 -15 -16 -15 -10 0 -14 6 -10 15
3 9 0 15 -9 15 -8 0 -15 5 -15 10 0 6 -11 10 -25 10 -14 0 -25 -4 -25 -10 0
-5 -7 -10 -15 -10 -21 0 -19 5 16 67 17 30 36 52 42 50 7 -2 17 -28 23 -58z
m-132 34 c4 -9 1 -20 -5 -24 -8 -4 -10 -19 -6 -39 6 -26 4 -31 -11 -28 -12 2
-17 14 -18 43 -1 22 1 46 3 53 7 17 30 15 37 -5z m-59 -13 c3 -5 3 -25 -1 -45
-5 -31 -10 -35 -35 -35 -33 0 -48 22 -30 44 6 7 8 16 5 19 -3 3 -3 10 1 16 8
14 52 14 60 1z m102 -7 c-3 -10 -8 -30 -11 -45 -8 -34 -26 -37 -26 -5 0 38 12
67 27 67 9 0 13 -7 10 -17z m271 -16 c4 -33 -13 -57 -39 -57 -11 0 -19 -7 -19
-15 0 -8 -7 -15 -16 -15 -12 0 -14 7 -10 30 19 98 15 91 49 88 27 -2 33 -8 35
-31z"/>
<path d="M546 285 c-3 -8 -1 -15 4 -15 6 0 10 7 10 15 0 8 -2 15 -4 15 -2 0
-6 -7 -10 -15z"/>
<path d="M637 284 c-10 -10 -9 -44 2 -44 13 0 23 32 13 42 -5 5 -11 5 -15 2z"/>
<path d="M350 249 c0 -5 5 -7 10 -4 6 3 10 8 10 11 0 2 -4 4 -10 4 -5 0 -10
-5 -10 -11z"/>
<path d="M728 284 c-5 -4 -8 -16 -8 -28 0 -14 3 -17 11 -9 6 6 9 19 7 28 -1 9
-6 13 -10 9z"/>
</g>
</svg>
